<?xml version="1.0" encoding="UTF-8" standalone="no"?>
<!-- Created with Inkscape (http://www.inkscape.org/) -->

<svg
   width="430mm"
   height="430mm"
   viewBox="0 0 430 429.99999"
   version="1.1"
   id="svg1"
   inkscape:version="1.3 (0e150ed6c4, 2023-07-21)"
   sodipodi:docname="ajbc_stripe.svg"
   inkscape:export-filename="ajbc_stripe.png"
   inkscape:export-xdpi="96"
   inkscape:export-ydpi="96"
   xmlns:inkscape="http://www.inkscape.org/namespaces/inkscape"
   xmlns:sodipodi="http://sodipodi.sourceforge.net/DTD/sodipodi-0.dtd"
   xmlns="http://www.w3.org/2000/svg"
   xmlns:svg="http://www.w3.org/2000/svg">
  <sodipodi:namedview
     id="namedview1"
     pagecolor="#ffffff"
     bordercolor="#000000"
     borderopacity="0.25"
     inkscape:showpageshadow="2"
     inkscape:pageopacity="0.0"
     inkscape:pagecheckerboard="0"
     inkscape:deskcolor="#d1d1d1"
     inkscape:document-units="mm"
     inkscape:zoom="0.65834035"
     inkscape:cx="858.2187"
     inkscape:cy="848.34539"
     inkscape:window-width="1920"
     inkscape:window-height="974"
     inkscape:window-x="-11"
     inkscape:window-y="-11"
     inkscape:window-maximized="1"
     inkscape:current-layer="layer1" />
  <defs
     id="defs1" />
  <g
     inkscape:label="Layer 1"
     inkscape:groupmode="layer"
     id="layer1"
     transform="translate(121.63194,236.85608)">
    <g
       id="g2">
      <rect
         style="fill:#f9f9f9;stroke-width:0.745897"
         id="rect1"
         width="430"
         height="430"
         x="-121.63194"
         y="-236.85608"
         ry="44.072021" />
      <g
         id="g4782"
         transform="matrix(1.0208367,0,0,1.0164035,-137.18422,-47.640042)"
         style="fill:#b3b3b3">
        <path
           style="color:#000000;font-style:normal;font-variant:normal;font-weight:normal;font-stretch:normal;font-size:medium;line-height:normal;font-family:sans-serif;font-variant-ligatures:normal;font-variant-position:normal;font-variant-caps:normal;font-variant-numeric:normal;font-variant-alternates:normal;font-feature-settings:normal;text-indent:0;text-align:start;text-decoration:none;text-decoration-line:none;text-decoration-style:solid;text-decoration-color:#000000;letter-spacing:normal;word-spacing:normal;text-transform:none;writing-mode:lr-tb;direction:ltr;text-orientation:mixed;dominant-baseline:auto;baseline-shift:baseline;text-anchor:start;white-space:normal;shape-padding:0;clip-rule:nonzero;display:inline;overflow:visible;visibility:visible;opacity:1;isolation:auto;mix-blend-mode:normal;color-interpolation:sRGB;color-interpolation-filters:linearRGB;solid-color:#000000;solid-opacity:1;vector-effect:none;fill:#b3b3b3;fill-opacity:1;fill-rule:nonzero;stroke:none;stroke-width:100;stroke-linecap:square;stroke-linejoin:round;stroke-miterlimit:0;stroke-dasharray:none;stroke-dashoffset:0;stroke-opacity:1;paint-order:markers fill stroke;color-rendering:auto;image-rendering:auto;shape-rendering:auto;text-rendering:auto;enable-background:accumulate"
           d="m 315.50195,-58.759766 c -114.34695,0 -208.00781,93.945078 -208.00781,208.369146 0,114.42406 93.66086,208.36718 208.00781,208.36718 39.46654,0 76.46569,-11.19465 108.00196,-30.55664 v 27.92578 h 100 V 150.77734 c -0.008,1.39502 -0.0348,2.78513 -0.0703,4.17383 0.0454,-1.77566 0.0684,-3.55588 0.0684,-5.34179 0,-114.424068 -93.65304,-208.369146 -208,-208.369146 z m 0,99.994141 c 60.17773,0 107.9961,47.870021 107.9961,108.375005 0,60.50497 -47.81837,108.36523 -107.9961,108.36523 -60.17772,0 -108.0039,-47.86026 -108.0039,-108.36523 0,-60.504984 47.82618,-108.375005 108.0039,-108.375005 z M 523.43359,154.96875 c -0.0453,1.76868 -0.11529,3.53307 -0.20507,5.29102 0.0898,-1.75836 0.15974,-3.52192 0.20507,-5.29102 z m -0.20507,5.31055 c -0.088,1.71958 -0.19814,3.43379 -0.32813,5.14258 0.13001,-1.70895 0.24014,-3.42284 0.32813,-5.14258 z m -0.35743,5.51953 c -0.13043,1.6742 -0.27895,3.34256 -0.44921,5.00586 -0.17349,1.69474 -0.3677,3.38349 -0.58204,5.0664 0.21428,-1.68255 0.40859,-3.37203 0.58204,-5.0664 0.17022,-1.66295 0.31881,-3.33202 0.44921,-5.00586 z m -1.07812,10.43164 c -0.43156,3.34168 -0.94357,6.65936 -1.5332,9.95117 0.58971,-3.29223 1.10161,-6.60908 1.5332,-9.95117 z m -1.58985,10.26562 c -0.59662,3.30137 -1.27182,6.57531 -2.02343,9.82227 0.75137,-3.24609 1.42697,-6.52181 2.02343,-9.82227 z m -2.09179,10.1211 c -0.75378,3.23438 -1.5847,6.44101 -2.48828,9.61719 0.90377,-3.17687 1.73438,-6.3821 2.48828,-9.61719 z m -2.58594,9.95898 c -0.90893,3.17419 -1.89071,6.3179 -2.94531,9.42969 1.05444,-3.11141 2.0365,-6.25591 2.94531,-9.42969 z m -3.05078,9.74414 c -1.07416,3.15283 -2.22178,6.27306 -3.44141,9.35742 1.21969,-3.0846 2.3672,-6.20435 3.44141,-9.35742 z m -3.48242,9.46094 c -0.61045,1.54136 -1.23877,3.0742 -1.88477,4.59766 0.64593,-1.52336 1.27438,-3.0564 1.88477,-4.59766 z m -1.96485,4.78125 c -0.64377,1.51414 -1.30403,3.01973 -1.98242,4.51562 -0.68639,1.51354 -1.39003,3.0174 -2.11133,4.51172 0.72114,-1.49406 1.42509,-2.99845 2.11133,-4.51172 0.67844,-1.49604 1.33861,-3.00133 1.98242,-4.51562 z m -4.1875,9.21875 c -0.71416,1.4757 -1.44369,2.94204 -2.1914,4.39844 -0.75859,1.47757 -1.53555,2.94516 -2.32813,4.40234 0.79267,-1.45739 1.56947,-2.92455 2.32813,-4.40234 0.74777,-1.45658 1.47718,-2.92256 2.1914,-4.39844 z m -4.5957,8.94141 c -0.78887,1.44772 -1.59215,2.88548 -2.41406,4.3125 -0.81085,1.40781 -1.63993,2.80425 -2.48242,4.1914 0.84239,-1.38708 1.67166,-2.78367 2.48242,-4.1914 0.82158,-1.42653 1.6255,-2.86529 2.41406,-4.3125 z m -5.08594,8.8125 c -1.65508,2.71449 -3.36903,5.3893 -5.14258,8.02148 1.77356,-2.63236 3.48749,-5.30681 5.14258,-8.02148 z m -5.50586,8.55859 c -1.78781,2.63578 -3.63408,5.22858 -5.53711,7.77734 1.90271,-2.54853 3.74959,-5.14181 5.53711,-7.77734 z m -5.71093,8.01172 c -0.97487,1.3019 -1.9626,2.59274 -2.9668,3.87109 -0.97262,1.23814 -1.96128,2.46412 -2.96094,3.67969 0.99991,-1.21597 1.98809,-2.44114 2.96094,-3.67969 1.00396,-1.27816 1.99215,-2.56939 2.9668,-3.87109 z m -6.21875,7.9043 c -1.0141,1.22769 -2.04077,2.44438 -3.08204,3.64843 1.04097,-1.20383 2.06822,-2.42098 3.08204,-3.64843 z m -3.21289,3.79882 c -1.01627,1.17292 -2.04628,2.3344 -3.08789,3.48438 1.04182,-1.15031 2.07141,-2.31111 3.08789,-3.48438 z m -3.31055,3.73047 c -1.06418,1.1712 -2.14043,2.33169 -3.23047,3.47852 1.09033,-1.14721 2.16602,-2.30693 3.23047,-3.47852 z m -3.51953,3.7793 c -1.01258,1.06112 -2.03595,2.11064 -3.07031,3.15039 1.03428,-1.03974 2.05782,-2.08928 3.07031,-3.15039 z m -3.40235,3.48633 c -1.09035,1.09114 -2.1946,2.16931 -3.30859,3.23633 1.11365,-1.06679 2.21857,-2.14544 3.30859,-3.23633 z m -3.74414,3.65234 c -1.0923,1.04029 -2.19415,2.06918 -3.30859,3.08594 1.11437,-1.01679 2.21635,-2.04561 3.30859,-3.08594 z m -3.41601,3.18555 c -1.14059,1.03916 -2.29374,2.06404 -3.45703,3.07812 1.16323,-1.01413 2.31649,-2.03891 3.45703,-3.07812 z m -4.03321,3.57812 c -1.07447,0.92985 -2.15865,1.84965 -3.25195,2.75782 1.09316,-0.90815 2.17761,-1.828 3.25195,-2.75782 z m -3.57812,3.03321 c -1.12905,0.93401 -2.26931,1.85311 -3.41797,2.76367 1.1484,-0.91045 2.28917,-1.82978 3.41797,-2.76367 z m -4.25977,3.42578 c -2.37161,1.86047 -4.78465,3.67122 -7.23632,5.42969 2.45172,-1.75868 4.86466,-3.56899 7.23632,-5.42969 z m -7.88476,5.89453 c -1.23881,0.88143 -2.48571,1.75259 -3.74414,2.60742 1.25859,-0.85502 2.50518,-1.72579 3.74414,-2.60742 z m -3.98828,2.77148 c -1.16185,0.78685 -2.33354,1.55842 -3.51172,2.32227 1.17808,-0.76386 2.34996,-1.53541 3.51172,-2.32227 z m -4.37696,2.88282 c -1.15431,0.74033 -2.31291,1.47339 -3.48242,2.1914 v -0.006 c 1.1683,-0.71737 2.32929,-1.4459 3.48242,-2.18554 z"
           transform="scale(0.26458333)"
           id="path4774"
           inkscape:connector-curvature="0" />
        <path
           id="path4776"
           d="m 269.6228,94.71463 c 30.2543,0 55.0354,-24.856302 55.0354,-55.131003 0,-30.274699 -24.7811,-55.130482 -55.0354,-55.130482 -10.44218,0 -20.23154,2.961917 -28.57551,8.084777 v -36.516869 h -26.45834 v 83.253551 c 0.002,-0.369099 0.009,-0.736899 0.0186,-1.104326 -0.012,0.46981 -0.0181,0.940827 -0.0181,1.413349 0,30.274701 24.77903,55.131003 55.03333,55.131003 z m 0,-26.456783 c -15.92202,0 -28.57396,-12.66561 -28.57396,-28.67422 0,-16.008606 12.65194,-28.671633 28.57396,-28.671633 15.92203,0 28.57604,12.663027 28.57604,28.671633 0,16.00861 -12.65401,28.67422 -28.57604,28.67422 z m -55.01524,-30.09222 c 0.012,-0.467963 0.0305,-0.934791 0.0543,-1.399916 -0.0238,0.465233 -0.0423,0.931842 -0.0543,1.399916 z m 0.0543,-1.405083 c 0.0233,-0.454972 0.0524,-0.908524 0.0868,-1.360641 -0.0344,0.45216 -0.0635,0.905627 -0.0868,1.360641 z m 0.0946,-1.460376 c 0.0345,-0.442965 0.0738,-0.884385 0.11885,-1.324467 0.0459,-0.4484 0.0973,-0.895215 0.154,-1.340485 -0.0567,0.445175 -0.10811,0.892183 -0.154,1.340485 -0.045,0.439989 -0.0843,0.881597 -0.11885,1.324467 z m 0.28525,-2.760038 c 0.11418,-0.884152 0.24965,-1.761955 0.40566,-2.632913 -0.15603,0.871069 -0.29147,1.748652 -0.40566,2.632913 z m 0.42065,-2.716112 c 0.15785,-0.873487 0.3365,-1.739717 0.53536,-2.598808 -0.1988,0.858861 -0.37755,1.725562 -0.53536,2.598808 z m 0.55345,-2.677874 c 0.19944,-0.855763 0.41928,-1.704184 0.65836,-2.544548 -0.23913,0.840547 -0.45889,1.688597 -0.65836,2.544548 z m 0.6842,-2.63498 c 0.24048,-0.839838 0.50025,-1.671611 0.77928,-2.494939 -0.27899,0.823227 -0.53883,1.65521 -0.77928,2.494939 z m 0.80718,-2.578137 c 0.28421,-0.834186 0.58785,-1.659747 0.91054,-2.475817 -0.32271,0.816133 -0.62632,1.641567 -0.91054,2.475817 z m 0.92139,-2.503207 c 0.16152,-0.407818 0.32776,-0.813382 0.49868,-1.216464 -0.1709,0.403055 -0.33718,0.808672 -0.49868,1.216464 z m 0.51987,-1.265039 c 0.17033,-0.400616 0.34502,-0.79897 0.52451,-1.194758 0.18161,-0.400457 0.36778,-0.798354 0.55863,-1.193726 -0.19081,0.395304 -0.37706,0.79334 -0.55863,1.193726 -0.1795,0.395827 -0.35417,0.794102 -0.52451,1.194758 z m 1.10794,-2.439128 c 0.18896,-0.390445 0.38198,-0.778414 0.57981,-1.163753 0.20071,-0.390941 0.40628,-0.779241 0.61598,-1.164786 -0.20972,0.385601 -0.41525,0.773787 -0.61598,1.164786 -0.19785,0.385386 -0.39084,0.77326 -0.57981,1.163753 z m 1.21595,-2.365748 c 0.20872,-0.383042 0.42125,-0.76345 0.63872,-1.141015 0.21453,-0.372483 0.43389,-0.741958 0.6568,-1.108975 -0.22288,0.366998 -0.44229,0.736513 -0.6568,1.108975 -0.21738,0.377436 -0.43008,0.758108 -0.63872,1.141015 z m 1.34565,-2.33164 c 0.43791,-0.718209 0.89139,-1.425919 1.36064,-2.12235 -0.46925,0.696478 -0.92273,1.404093 -1.36064,2.12235 z m 1.45676,-2.26446 c 0.47303,-0.697384 0.96152,-1.383396 1.46503,-2.057755 -0.50343,0.674299 -0.99208,1.360437 -1.46503,2.057755 z m 1.51102,-2.119768 c 0.25793,-0.344461 0.51927,-0.685996 0.78496,-1.024226 0.25734,-0.327591 0.51893,-0.651965 0.78342,-0.973585 -0.26456,0.321726 -0.52602,0.645885 -0.78342,0.973585 -0.26563,0.33818 -0.52709,0.679818 -0.78496,1.024226 z m 1.64537,-2.091346 c 0.26832,-0.324826 0.53996,-0.646742 0.81546,-0.965314 -0.27542,0.318514 -0.54722,0.640551 -0.81546,0.965314 z m 0.85008,-1.005104 c 0.26889,-0.310336 0.54141,-0.617644 0.81701,-0.921909 -0.27565,0.304353 -0.54806,0.611481 -0.81701,0.921909 z m 0.87592,-0.987021 c 0.28156,-0.30988 0.56632,-0.616926 0.85473,-0.920358 -0.28849,0.303533 -0.5731,0.610375 -0.85473,0.920358 z m 0.93121,-0.999939 c 0.26791,-0.280755 0.53868,-0.558441 0.81235,-0.833541 -0.27365,0.275098 -0.54446,0.552789 -0.81235,0.833541 z m 0.9002,-0.922425 c 0.28849,-0.288698 0.58066,-0.573964 0.8754,-0.856279 -0.29465,0.282255 -0.587,0.567647 -0.8754,0.856279 z m 0.99064,-0.966349 c 0.289,-0.275243 0.58053,-0.54747 0.8754,-0.816488 -0.29485,0.269026 -0.58641,0.541235 -0.8754,0.816488 z m 0.90382,-0.842843 c 0.30178,-0.274944 0.60688,-0.546111 0.91467,-0.814419 -0.30777,0.268322 -0.6129,0.539461 -0.91467,0.814419 z m 1.06712,-0.946711 c 0.28429,-0.246023 0.57114,-0.489386 0.86041,-0.729673 -0.28923,0.240281 -0.57616,0.483658 -0.86041,0.729673 z m 0.94671,-0.802537 c 0.29873,-0.247123 0.60042,-0.490302 0.90434,-0.731221 -0.30385,0.24089 -0.60568,0.48413 -0.90434,0.731221 z m 1.12706,-0.906404 c 0.62749,-0.492249 1.26594,-0.971344 1.91461,-1.436605 -0.64868,0.465317 -1.2871,0.944295 -1.91461,1.436605 z m 2.08618,-1.559594 c 0.32777,-0.233212 0.65768,-0.463706 0.99064,-0.68988 -0.33301,0.226224 -0.66283,0.456615 -0.99064,0.68988 z m 1.05523,-0.733288 c 0.30741,-0.208187 0.61742,-0.412332 0.92914,-0.614434 -0.3117,0.202105 -0.62176,0.406244 -0.92914,0.614434 z m 1.15807,-0.762746 c 0.30541,-0.195879 0.61196,-0.389834 0.92139,-0.579808 v 0.0016 c -0.30911,0.189804 -0.61629,0.382561 -0.92139,0.578257 z"
           style="color:#000000;font-style:normal;font-variant:normal;font-weight:normal;font-stretch:normal;font-size:medium;line-height:normal;font-family:sans-serif;font-variant-ligatures:normal;font-variant-position:normal;font-variant-caps:normal;font-variant-numeric:normal;font-variant-alternates:normal;font-feature-settings:normal;text-indent:0;text-align:start;text-decoration:none;text-decoration-line:none;text-decoration-style:solid;text-decoration-color:#000000;letter-spacing:normal;word-spacing:normal;text-transform:none;writing-mode:lr-tb;direction:ltr;text-orientation:mixed;dominant-baseline:auto;baseline-shift:baseline;text-anchor:start;white-space:normal;shape-padding:0;clip-rule:nonzero;display:inline;overflow:visible;visibility:visible;opacity:1;isolation:auto;mix-blend-mode:normal;color-interpolation:sRGB;color-interpolation-filters:linearRGB;solid-color:#000000;solid-opacity:1;vector-effect:none;fill:#b3b3b3;fill-opacity:1;fill-rule:nonzero;stroke:none;stroke-width:26.4583;stroke-linecap:square;stroke-linejoin:round;stroke-miterlimit:0;stroke-dasharray:none;stroke-dashoffset:0;stroke-opacity:1;paint-order:markers fill stroke;color-rendering:auto;image-rendering:auto;shape-rendering:auto;text-rendering:auto;enable-background:accumulate"
           inkscape:connector-curvature="0"
           sodipodi:nodetypes="ssscccccsssssssscccccccccccccccccccccccccccccccccccccccccccccccccccccccccccccccccccccccccccccccccccccccccccccccc" />
        <path
           style="color:#000000;font-style:normal;font-variant:normal;font-weight:normal;font-stretch:normal;font-size:medium;line-height:normal;font-family:sans-serif;font-variant-ligatures:normal;font-variant-position:normal;font-variant-caps:normal;font-variant-numeric:normal;font-variant-alternates:normal;font-feature-settings:normal;text-indent:0;text-align:start;text-decoration:none;text-decoration-line:none;text-decoration-style:solid;text-decoration-color:#000000;letter-spacing:normal;word-spacing:normal;text-transform:none;writing-mode:lr-tb;direction:ltr;text-orientation:mixed;dominant-baseline:auto;baseline-shift:baseline;text-anchor:start;white-space:normal;shape-padding:0;clip-rule:nonzero;display:inline;overflow:visible;visibility:visible;opacity:1;isolation:auto;mix-blend-mode:normal;color-interpolation:sRGB;color-interpolation-filters:linearRGB;solid-color:#000000;solid-opacity:1;vector-effect:none;fill:#b3b3b3;fill-opacity:1;fill-rule:nonzero;stroke:none;stroke-width:26.4583;stroke-linecap:square;stroke-linejoin:round;stroke-miterlimit:0;stroke-dasharray:none;stroke-dashoffset:0;stroke-opacity:1;paint-order:markers fill stroke;color-rendering:auto;image-rendering:auto;shape-rendering:auto;text-rendering:auto;enable-background:accumulate"
           d="m 382.99053,-15.546855 c -30.25428,0 -55.03333,24.856302 -55.03333,55.131003 0,30.274699 24.77905,55.130482 55.03333,55.130482 15.7376,0 29.99176,-6.727875 40.04974,-17.443378 L 404.43056,58.661535 c -5.21372,5.907754 -12.85062,9.594246 -21.44003,9.594246 -15.92202,0 -28.5745,-12.663027 -28.5745,-28.671633 0,-16.00861 12.65248,-28.67422 28.5745,-28.67422 8.70244,0 16.4288,3.783842 21.64622,9.828857 L 423.25162,2.1239014 C 413.1825,-8.7235275 398.83897,-15.546855 382.99053,-15.546855 Z"
           id="path4778"
           inkscape:connector-curvature="0" />
        <path
           style="color:#000000;font-style:normal;font-variant:normal;font-weight:normal;font-stretch:normal;font-size:medium;line-height:normal;font-family:sans-serif;font-variant-ligatures:normal;font-variant-position:normal;font-variant-caps:normal;font-variant-numeric:normal;font-variant-alternates:normal;font-feature-settings:normal;text-indent:0;text-align:start;text-decoration:none;text-decoration-line:none;text-decoration-style:solid;text-decoration-color:#000000;letter-spacing:normal;word-spacing:normal;text-transform:none;writing-mode:lr-tb;direction:ltr;text-orientation:mixed;dominant-baseline:auto;baseline-shift:baseline;text-anchor:start;white-space:normal;shape-padding:0;clip-rule:nonzero;display:inline;overflow:visible;visibility:visible;opacity:1;isolation:auto;mix-blend-mode:normal;color-interpolation:sRGB;color-interpolation-filters:linearRGB;solid-color:#000000;solid-opacity:1;vector-effect:none;fill:#b3b3b3;fill-opacity:1;fill-rule:nonzero;stroke:none;stroke-width:26.4583;stroke-linecap:square;stroke-linejoin:round;stroke-miterlimit:0;stroke-dasharray:none;stroke-dashoffset:0;stroke-opacity:1;paint-order:markers fill stroke;color-rendering:auto;image-rendering:auto;shape-rendering:auto;text-rendering:auto;enable-background:accumulate"
           d="m 177.4693,-43.97871 v 36.5166333 c -0.001,-8.499e-4 -0.003,-0.00173 -0.004,-0.00258 V 39.193991 h -0.002 c 0.002,0.129889 0.005,0.259299 0.005,0.389638 0,16.008609 -12.65195,28.674219 -28.57397,28.674219 h -5.3e-4 V 94.71463 h 5.3e-4 c 30.25429,0 55.03334,-24.856299 55.03334,-55.131001 0,-0.472522 -0.006,-0.943541 -0.0181,-1.413351 0.01,0.36743 0.0166,0.735227 0.0186,1.104326 V -43.97871 Z m -17.7767,29.509826 c 0.4862,0.09816 0.97055,0.20161 1.45212,0.312642 -0.48155,-0.111022 -0.96595,-0.214492 -1.45212,-0.312642 z m 6.34744,1.686719 c 0.49331,0.163631 0.98406,0.332324 1.47121,0.509529 -0.48707,-0.177171 -0.97798,-0.345926 -1.47121,-0.509529 z m 3.5238,1.305346 c 0.46471,0.190597 0.9271,0.385691 1.38546,0.588595 -0.45834,-0.202886 -0.92078,-0.398015 -1.38546,-0.588595 z m 7.90805,4.0147423 c 0.30943,0.189974 0.61597,0.3839305 0.92138,0.5798095 -0.30509,-0.1956959 -0.61227,-0.3884552 -0.92138,-0.5782593 z M 150.60996,10.963155 c 0.16695,0.0096 0.33412,0.0191 0.50022,0.03152 -0.16608,-0.01243 -0.33329,-0.02188 -0.50022,-0.03152 z m 0.50022,0.03152 c 0.2435,0.01822 0.48596,0.03942 0.72761,0.06356 -0.24162,-0.02414 -0.48411,-0.04535 -0.72761,-0.06356 z m 0.75965,0.06718 c 0.22566,0.0228 0.45093,0.04754 0.6749,0.07545 -0.22411,-0.02792 -0.44911,-0.05264 -0.6749,-0.07545 z m 1.06867,0.129708 c 0.10589,0.01467 0.21231,0.0276 0.31782,0.04341 -0.10551,-0.01581 -0.2119,-0.02874 -0.31782,-0.04341 z m 0.6408,0.0956 c 0.13189,0.02129 0.26405,0.04206 0.39531,0.06511 -0.13123,-0.02305 -0.26344,-0.04383 -0.39531,-0.06511 z m 1.44073,0.270268 c 0.12018,0.02572 0.24062,0.05082 0.36018,0.07803 -0.11954,-0.0272 -0.24005,-0.05231 -0.36018,-0.07803 z m 0.61598,0.139009 c 0.13552,0.03215 0.27144,0.06362 0.40619,0.09767 -0.13481,-0.03407 -0.27062,-0.0655 -0.40619,-0.09767 z m 0.79478,0.201022 c 0.10144,0.02716 0.20341,0.0529 0.30438,0.08113 -0.10094,-0.02823 -0.20296,-0.05398 -0.30438,-0.08113 z m 0.66353,0.186035 c 0.10355,0.03043 0.20753,0.05991 0.31059,0.09147 -0.10308,-0.03157 -0.20701,-0.06103 -0.31059,-0.09147 z m 0.72863,0.224792 c 0.08,0.02586 0.1606,0.05046 0.2403,0.077 -0.0797,-0.02654 -0.16029,-0.05114 -0.2403,-0.077 z m 0.69713,0.235128 c 0.0673,0.02368 0.13504,0.04612 0.20206,0.07028 -0.067,-0.02416 -0.13481,-0.0466 -0.20206,-0.07028 z m 0.57155,0.208256 c 0.0996,0.03749 0.19963,0.07409 0.29869,0.112655 -0.0991,-0.03856 -0.1991,-0.07517 -0.29869,-0.112655 z m 0.61338,0.239262 c 0.10872,0.04383 0.21804,0.08666 0.32607,0.131775 -0.10808,-0.04514 -0.2173,-0.08792 -0.32607,-0.131775 z m 0.67024,0.280086 c 0.0953,0.04128 0.19106,0.08174 0.28578,0.124024 -0.0947,-0.04229 -0.1905,-0.08274 -0.28578,-0.124024 z m 0.68782,0.308509 c 0.0725,0.03375 0.14536,0.06694 0.21756,0.101285 -0.0722,-0.03433 -0.14507,-0.06755 -0.21756,-0.101285 z m 0.6537,0.314709 c 0.0585,0.02906 0.11745,0.05736 0.17571,0.08682 -0.0583,-0.02947 -0.11718,-0.05774 -0.17571,-0.08682 z m 0.57052,0.291455 c 0.0777,0.04083 0.15579,0.08095 0.23305,0.122473 -0.0772,-0.04152 -0.15539,-0.08165 -0.23305,-0.122473 z m 0.56018,0.302824 c 0.091,0.0505 0.18243,0.100465 0.27284,0.151929 -0.0904,-0.05148 -0.1818,-0.101415 -0.27284,-0.151929 z m 0.66921,0.382922 c 0.0588,0.03476 0.11816,0.0687 0.17671,0.10387 -0.0585,-0.03516 -0.11792,-0.06912 -0.17671,-0.10387 z m 0.62423,0.379306 c 0.043,0.02693 0.0864,0.05346 0.1292,0.08061 -0.0429,-0.02718 -0.0862,-0.05366 -0.1292,-0.08061 z m 0.57362,0.369486 c 0.044,0.02907 0.0884,0.0575 0.13229,0.08682 -0.0438,-0.02931 -0.0883,-0.05775 -0.13229,-0.08682 z m 0.50591,0.342615 c 0.0681,0.04712 0.137,0.09337 0.20465,0.141076 -0.0677,-0.04772 -0.13655,-0.09393 -0.20465,-0.141076 z m 0.58033,0.411861 c 0.0546,0.03983 0.10954,0.07916 0.16381,0.119373 -0.0543,-0.04022 -0.10925,-0.07954 -0.16381,-0.119373 z m 0.5519,0.413928 c 0.0522,0.04006 0.10472,0.07947 0.15658,0.119889 -0.0519,-0.04042 -0.10443,-0.07983 -0.15658,-0.119889 z m 0.54673,0.430465 c 0.0455,0.03673 0.0912,0.07307 0.13642,0.110071 -0.0452,-0.03701 -0.091,-0.07334 -0.13642,-0.110071 z m 0.56277,0.466638 c 0.0273,0.02322 0.055,0.04593 0.0822,0.06925 -0.0272,-0.02332 -0.0549,-0.04602 -0.0822,-0.06925 z m 0.48988,0.427364 c 0.0383,0.03418 0.0771,0.06793 0.11525,0.102319 -0.0382,-0.03441 -0.0769,-0.06811 -0.11525,-0.102319 z m 0.47749,0.435632 c 0.0476,0.04443 0.0954,0.08857 0.14264,0.133326 -0.0472,-0.04474 -0.0951,-0.08891 -0.14264,-0.133326 z m 0.49766,0.476457 c 0.043,0.04222 0.0864,0.08411 0.12919,0.126607 -0.0428,-0.04249 -0.0862,-0.08439 -0.12919,-0.126607 z m 0.50591,0.508496 c 0.0294,0.03036 0.0591,0.06046 0.0884,0.09095 -0.0293,-0.03049 -0.059,-0.06059 -0.0884,-0.09095 z m 0.48368,0.511597 c 0.0222,0.02402 0.0446,0.04773 0.0667,0.07183 -0.0221,-0.0241 -0.0445,-0.04781 -0.0667,-0.07183 z m 0.87903,0.999422 c 0.0295,0.03521 0.0595,0.07006 0.0889,0.10542 -0.0294,-0.03537 -0.0593,-0.0702 -0.0889,-0.10542 z m 2.05258,2.773991 c 0.0136,0.02099 0.0272,0.04202 0.0408,0.06304 -0.0136,-0.02104 -0.0272,-0.04205 -0.0408,-0.06304 z m 0.71313,1.159102 c 0.0147,0.02521 0.0298,0.05018 0.0444,0.07545 -0.0146,-0.02527 -0.0297,-0.05023 -0.0444,-0.07545 z m 0.34055,0.599964 c 0.0127,0.02309 0.0256,0.04611 0.0382,0.06925 -0.0126,-0.02314 -0.0255,-0.04615 -0.0382,-0.06925 z m 2.5859,6.44922 c 0.005,0.01845 0.0101,0.03682 0.015,0.05529 -0.005,-0.01848 -0.0101,-0.03683 -0.015,-0.05529 z m 0.59322,2.777606 c 0.004,0.02272 0.007,0.04548 0.0109,0.06821 -0.004,-0.02274 -0.007,-0.04549 -0.0109,-0.06821 z m 0.10698,0.711586 c 0.003,0.02222 0.006,0.04443 0.009,0.06666 -0.003,-0.02224 -0.006,-0.04444 -0.009,-0.06666 z m 0.16383,1.453658 c 0.001,0.01532 0.002,0.03066 0.004,0.04599 -0.001,-0.01532 -0.002,-0.03068 -0.004,-0.04599 z"
           id="path4780"
           inkscape:connector-curvature="0" />
      </g>
    </g>
  </g>
</svg>
