<?xml version="1.0" encoding="UTF-8" standalone="no"?>
<!-- Created with Inkscape (http://www.inkscape.org/) -->

<svg
   width="430mm"
   height="430mm"
   viewBox="0 0 430 429.99999"
   version="1.1"
   id="svg1"
   inkscape:version="1.3 (0e150ed6c4, 2023-07-21)"
   sodipodi:docname="favicon.svg"
   inkscape:export-filename="ajbc_stripe.png"
   inkscape:export-xdpi="96"
   inkscape:export-ydpi="96"
   xmlns:inkscape="http://www.inkscape.org/namespaces/inkscape"
   xmlns:sodipodi="http://sodipodi.sourceforge.net/DTD/sodipodi-0.dtd"
   xmlns="http://www.w3.org/2000/svg"
   xmlns:svg="http://www.w3.org/2000/svg">
  <sodipodi:namedview
     id="namedview1"
     pagecolor="#ffffff"
     bordercolor="#000000"
     borderopacity="0.25"
     inkscape:showpageshadow="2"
     inkscape:pageopacity="0.0"
     inkscape:pagecheckerboard="0"
     inkscape:deskcolor="#d1d1d1"
     inkscape:document-units="mm"
     inkscape:zoom="0.32917018"
     inkscape:cx="858.21869"
     inkscape:cy="849.10486"
     inkscape:window-width="1920"
     inkscape:window-height="974"
     inkscape:window-x="-11"
     inkscape:window-y="-11"
     inkscape:window-maximized="1"
     inkscape:current-layer="layer1" />
  <defs
     id="defs1">
    <filter
       id="mask-powermask-path-effect3_inverse"
       inkscape:label="filtermask-powermask-path-effect3"
       style="color-interpolation-filters:sRGB"
       height="100"
       width="100"
       x="-50"
       y="-50">
      <feColorMatrix
         id="mask-powermask-path-effect3_primitive1"
         values="1"
         type="saturate"
         result="fbSourceGraphic" />
      <feColorMatrix
         id="mask-powermask-path-effect3_primitive2"
         values="-1 0 0 0 1 0 -1 0 0 1 0 0 -1 0 1 0 0 0 1 0 "
         in="fbSourceGraphic" />
    </filter>
  </defs>
  <g
     inkscape:label="Layer 1"
     inkscape:groupmode="layer"
     id="layer1"
     transform="translate(121.63194,236.85608)"
     style="display:inline">
    <path
       id="rect1"
       style="display:inline;fill:#f9f9f9;stroke-width:0.745897"
       d="M -77.559695 -236.85608 C -101.97555 -236.85608 -121.63194 -217.19969 -121.63194 -192.78383 L -121.63194 149.07178 C -121.63194 173.48764 -101.97555 193.14403 -77.559695 193.14403 L 264.29592 193.14403 C 288.71178 193.14403 308.36817 173.48764 308.36817 149.07178 L 308.36817 -192.78383 C 308.36817 -217.19969 288.71178 -236.85608 264.29592 -236.85608 L -77.559695 -236.85608 z M 225.54428 -170.77071 L 282.60954 -170.77071 L 282.60954 8.00701 C 282.60524 7.2144111 282.59134 6.4245934 282.56974 5.6355785 C 282.59584 6.6444431 282.6085 7.6558468 282.6085 8.6705354 C 282.6085 73.682084 229.16606 127.05866 163.91497 127.05866 L 163.91394 127.05866 L 163.91394 70.245588 L 163.91497 70.245588 C 198.25487 70.245588 225.54222 43.04724 225.54222 8.6705354 C 225.54222 8.3906468 225.53537 8.1128162 225.53137 7.833894 L 225.53498 7.833894 L 225.53498 -92.360507 C 225.53698 -92.358807 225.54228 -92.357139 225.54428 -92.355339 L 225.54428 -170.77071 z M 22.824359 -109.71604 C 88.075526 -109.71604 141.51841 -56.340043 141.51841 8.6715689 C 141.51841 9.6862585 141.50503 10.69766 141.47913 11.706526 C 141.49933 10.917517 141.51444 10.127694 141.51944 9.3350943 L 141.51944 125.56366 L 84.455222 125.56366 L 84.455222 109.69744 C 66.459305 120.69822 45.345622 127.05866 22.824359 127.05866 C -42.426804 127.05866 -95.873306 73.683177 -95.873306 8.6715689 C -95.873306 -56.340043 -42.426804 -109.71604 22.824359 -109.71604 z M 225.54997 -92.355339 L 225.54997 -92.351722 C 226.21665 -91.944139 226.87892 -91.530173 227.53693 -91.109937 C 226.87823 -91.530568 226.21734 -91.947393 225.54997 -92.355339 z M 22.824359 -52.902967 C -11.515569 -52.902967 -38.807021 -25.705172 -38.807021 8.6715689 C -38.807021 43.048302 -11.515569 70.240937 22.824359 70.240937 C 57.164294 70.240937 84.451605 43.048302 84.451605 8.6715689 C 84.451605 -25.705172 57.164294 -52.902967 22.824359 -52.902967 z M 86.164162 108.62981 C 85.598975 108.98852 85.031908 109.34494 84.46039 109.69434 L 84.46039 109.69744 C 85.032498 109.34773 85.598824 108.98931 86.164162 108.62981 z " />
  </g>
</svg>
