<?xml version="1.0" encoding="UTF-8" standalone="no"?>
<!-- Created with Inkscape (http://www.inkscape.org/) -->

<svg
   width="438.23904mm"
   height="394.18875mm"
   viewBox="0 0 438.23904 394.18874"
   version="1.1"
   id="svg1"
   xmlns="http://www.w3.org/2000/svg"
   xmlns:svg="http://www.w3.org/2000/svg">
  <defs
     id="defs1" />
  <g
     id="layer1"
     transform="translate(122.92798,239.89771)">
    <rect
       style="fill:#f9f9f9;stroke:#f9f9f9;stroke-width:0.290293"
       id="rect28"
       width="437.94876"
       height="393.89847"
       x="-122.78283"
       y="-239.75256"
       ry="96.873734" />
    <path
       style="color:#000000;font-style:normal;font-variant:normal;font-weight:normal;font-stretch:normal;font-size:medium;line-height:normal;font-family:sans-serif;font-variant-ligatures:normal;font-variant-position:normal;font-variant-caps:normal;font-variant-numeric:normal;font-variant-alternates:normal;font-feature-settings:normal;text-indent:0;text-align:start;text-decoration:none;text-decoration-line:none;text-decoration-style:solid;text-decoration-color:#000000;letter-spacing:normal;word-spacing:normal;text-transform:none;writing-mode:lr-tb;direction:ltr;text-orientation:mixed;dominant-baseline:auto;baseline-shift:baseline;text-anchor:start;white-space:normal;shape-padding:0;clip-rule:nonzero;display:inline;overflow:visible;visibility:visible;isolation:auto;mix-blend-mode:normal;color-interpolation:sRGB;color-interpolation-filters:linearRGB;solid-color:#000000;solid-opacity:1;vector-effect:none;fill:#1a1a1a;fill-opacity:1;fill-rule:nonzero;stroke:none;stroke-width:60.2153;stroke-linecap:square;stroke-linejoin:round;stroke-miterlimit:0;stroke-dasharray:none;stroke-dashoffset:0;stroke-opacity:1;paint-order:markers fill stroke;color-rendering:auto;image-rendering:auto;shape-rendering:auto;text-rendering:auto;enable-background:accumulate"
       d="m 18.766933,-114.76991 c -69.00441,0 -125.525473,56.44639 -125.525473,125.197471 0,68.751076 56.521063,125.196289 125.525473,125.196289 23.816687,0 46.144388,-6.72625 65.17543,-18.35979 v 16.77905 H 144.28889 V 11.129324 c -0.005,0.83819 -0.021,1.67343 -0.0424,2.507823 0.0274,-1.066896 0.0413,-2.136531 0.0413,-3.209586 0,-68.751081 -56.516355,-125.197471 -125.520769,-125.197471 z m 0,60.080937 c 36.315169,0 65.171894,28.762443 65.171894,65.116534 0,36.354083 -28.856725,65.11066 -65.171894,65.11066 -36.315161,0 -65.1766,-28.756577 -65.1766,-65.11066 0,-36.354091 28.861439,-65.116534 65.1766,-65.116534 z M 144.24645,13.647709 c -0.0273,1.062702 -0.0696,2.122826 -0.12375,3.179081 0.0542,-1.056501 0.0964,-2.116126 0.12375,-3.179081 z m -0.12375,3.190816 c -0.0531,1.0332 -0.11957,2.063174 -0.19802,3.089891 0.0785,-1.026813 0.14492,-2.056595 0.19802,-3.089891 z m -0.2157,3.316379 c -0.0787,1.005934 -0.16834,2.008359 -0.27108,3.007744 -0.1047,1.018276 -0.2219,2.032952 -0.35124,3.044119 0.12931,-1.010951 0.24657,-2.026066 0.35124,-3.044119 0.10272,-0.999174 0.19239,-2.002026 0.27108,-3.007744 z m -0.65061,6.267795 c -0.26043,2.00783 -0.56941,4.00124 -0.92523,5.979106 0.35587,-1.978118 0.66479,-3.97103 0.92523,-5.979106 z m -0.95941,6.168042 c -0.36004,1.98361 -0.7675,3.950739 -1.22107,5.901657 0.45342,-1.950395 0.86112,-3.918594 1.22107,-5.901657 z m -1.26233,6.081208 c -0.45488,1.943359 -0.95631,3.870046 -1.50159,5.778436 0.5454,-1.908805 1.04664,-3.83465 1.50159,-5.778436 z m -1.56052,5.983799 c -0.54851,1.907195 -1.14098,3.796076 -1.77739,5.665779 0.63631,-1.869475 1.22895,-3.758831 1.77739,-5.665779 z m -1.84104,5.854714 c -0.64822,1.894359 -1.34077,3.769133 -2.07677,5.622354 0.73604,-1.853364 1.42852,-3.72785 2.07677,-5.622354 z m -2.10152,5.684554 c -0.36839,0.926118 -0.74756,1.847116 -1.13739,2.762478 0.38979,-0.915302 0.76904,-1.83642 1.13739,-2.762478 z m -1.18572,2.872788 c -0.38849,0.909763 -0.78694,1.814388 -1.19632,2.713186 -0.41421,0.909401 -0.83884,1.812989 -1.27412,2.710842 0.43519,-0.897699 0.86,-1.801602 1.27412,-2.710842 0.40941,-0.898887 0.8078,-1.803333 1.19632,-2.713186 z m -2.52701,5.539036 c -0.43097,0.886666 -0.87122,1.767708 -1.32243,2.642778 -0.45779,0.887792 -0.92666,1.769584 -1.40495,2.645123 0.47835,-0.875666 0.94712,-1.7572 1.40495,-2.645123 0.45125,-0.875177 0.89142,-1.756005 1.32243,-2.642778 z m -2.77335,5.372397 c -0.47605,0.869855 -0.9608,1.733727 -1.4568,2.591144 -0.48932,0.845874 -0.98964,1.684917 -1.49805,2.518378 0.50835,-0.833419 1.00879,-1.672553 1.49805,-2.518378 0.4958,-0.857125 0.98094,-1.721595 1.4568,-2.591144 z m -3.06918,5.294943 c -0.99879,1.630987 -2.0331,3.238132 -3.10337,4.819663 1.07028,-1.581638 2.10458,-3.188569 3.10337,-4.819663 z m -3.3226,5.142382 c -1.07888,1.583694 -2.19304,3.141565 -3.34145,4.672973 1.14822,-1.53127 2.26274,-3.089429 3.34145,-4.672973 z m -3.44635,4.813798 c -0.5883,0.782241 -1.18436,1.557835 -1.79036,2.325924 -0.58694,0.74393 -1.18356,1.480554 -1.78682,2.210922 0.60341,-0.730609 1.19974,-1.466746 1.78682,-2.210922 0.60586,-0.767975 1.2022,-1.543804 1.79036,-2.325924 z m -3.7528,4.749257 c -0.61197,0.73765 -1.23153,1.468693 -1.8599,2.192139 0.62819,-0.723315 1.2481,-1.454632 1.8599,-2.192139 z m -1.93886,2.282499 c -0.61329,0.704743 -1.23486,1.402612 -1.86344,2.093572 0.6287,-0.691157 1.25003,-1.388619 1.86344,-2.093572 z m -1.99781,2.241433 c -0.64219,0.703709 -1.29167,1.400983 -1.94947,2.090051 0.65797,-0.689295 1.30712,-1.386107 1.94947,-2.090051 z m -2.12391,2.270774 c -0.61106,0.637568 -1.22863,1.268165 -1.85283,1.892893 0.62416,-0.624721 1.24183,-1.255332 1.85283,-1.892893 z m -2.0532,2.09474 c -0.65799,0.655606 -1.32436,1.303417 -1.99662,1.944527 0.67205,-0.64097 1.33883,-1.289071 1.99662,-1.944527 z m -2.25946,2.194487 c -0.65916,0.62505 -1.32409,1.24326 -1.99662,1.85417 0.67249,-0.61093 1.33749,-1.22909 1.99662,-1.85417 z m -2.06144,1.91402 c -0.68831,0.62438 -1.38419,1.24017 -2.0862,1.84948 0.70197,-0.60934 1.39792,-1.22507 2.0862,-1.84948 z m -2.4339,2.1499 c -0.648409,0.55869 -1.302674,1.11135 -1.962442,1.65702 0.659683,-0.54566 1.314111,-1.09834 1.962442,-1.65702 z m -2.159275,1.82249 c -0.681342,0.56119 -1.369449,1.11343 -2.062626,1.66053 0.69302,-0.54704 1.381436,-1.09941 2.062626,-1.66053 z m -2.570622,2.05836 c -1.431184,1.11785 -2.887371,2.20583 -4.366869,3.2624 1.479529,-1.0567 2.935654,-2.14441 4.366869,-3.2624 z m -4.758179,3.54169 c -0.747579,0.5296 -1.500039,1.05304 -2.259459,1.56666 0.759516,-0.51374 1.511789,-1.03694 2.259459,-1.56666 z m -2.406788,1.66523 c -0.701138,0.47277 -1.408211,0.93637 -2.119202,1.39533 0.71093,-0.45897 1.41812,-0.92255 2.119202,-1.39533 z m -2.641344,1.73213 c -0.696586,0.44482 -1.395761,0.88528 -2.101519,1.31669 v -0.004 c 0.705029,-0.43102 1.405646,-0.86876 2.101519,-1.31317 z"
       id="path4774" />
    <path
       style="color:#000000;font-style:normal;font-variant:normal;font-weight:normal;font-stretch:normal;font-size:medium;line-height:normal;font-family:sans-serif;font-variant-ligatures:normal;font-variant-position:normal;font-variant-caps:normal;font-variant-numeric:normal;font-variant-alternates:normal;font-feature-settings:normal;text-indent:0;text-align:start;text-decoration:none;text-decoration-line:none;text-decoration-style:solid;text-decoration-color:#000000;letter-spacing:normal;word-spacing:normal;text-transform:none;writing-mode:lr-tb;direction:ltr;text-orientation:mixed;dominant-baseline:auto;baseline-shift:baseline;text-anchor:start;white-space:normal;shape-padding:0;clip-rule:nonzero;display:inline;overflow:visible;visibility:visible;isolation:auto;mix-blend-mode:normal;color-interpolation:sRGB;color-interpolation-filters:linearRGB;solid-color:#000000;solid-opacity:1;vector-effect:none;fill:#1a1a1a;fill-opacity:1;fill-rule:nonzero;stroke:none;stroke-width:60.2153;stroke-linecap:square;stroke-linejoin:round;stroke-miterlimit:0;stroke-dasharray:none;stroke-dashoffset:0;stroke-opacity:1;paint-order:markers fill stroke;color-rendering:auto;image-rendering:auto;shape-rendering:auto;text-rendering:auto;enable-background:accumulate"
       d="m 233.14686,-179.33606 v 82.925942 c -0.002,-0.0019 -0.007,-0.004 -0.009,-0.0058 V 9.5416004 h -0.004 c 0.004,0.2949662 0.0114,0.5888446 0.0114,0.8848326 0,36.354089 -28.85674,65.116533 -65.1719,65.116533 h -0.001 V 135.6239 h 0.001 c 69.00439,0 125.52079,-56.446384 125.52079,-125.197467 0,-1.0730547 -0.0136,-2.1426957 -0.0413,-3.2095912 0.0228,0.8343999 0.0378,1.6696334 0.0424,2.5078235 V -179.33601 Z m -40.54534,67.01412 c 1.10894,0.22292 2.21365,0.45784 3.31202,0.70998 -1.09833,-0.25212 -2.20315,-0.48709 -3.31202,-0.70998 z m 14.47733,3.83039 c 1.12515,0.37159 2.24446,0.75468 3.35556,1.15709 -1.11092,-0.40234 -2.23059,-0.78557 -3.35556,-1.15709 z m 8.03713,2.96432 c 1.05992,0.43283 2.11454,0.87587 3.15998,1.33665 -1.04539,-0.46074 -2.10013,-0.90386 -3.15998,-1.33665 z m 18.03679,9.117112 c 0.70575,0.431414 1.40491,0.871871 2.1015,1.316696 -0.69586,-0.444407 -1.39648,-0.882148 -2.1015,-1.313174 z m -61.26705,41.842019 c 0.38078,0.0219 0.76206,0.04337 1.1409,0.07159 -0.37879,-0.02822 -0.76017,-0.04969 -1.1409,-0.07159 z m 1.1409,0.07159 c 0.55538,0.04138 1.10839,0.08953 1.65954,0.144333 -0.55108,-0.05483 -1.10416,-0.102977 -1.65954,-0.144333 z m 1.73262,0.152555 c 0.51469,0.05177 1.02849,0.107959 1.53932,0.171345 -0.51115,-0.06341 -1.02433,-0.119533 -1.53932,-0.171345 z m 2.43744,0.294555 c 0.24152,0.03331 0.48424,0.06267 0.72489,0.09858 -0.24065,-0.03591 -0.48331,-0.06526 -0.72489,-0.09858 z m 1.46155,0.217103 c 0.30081,0.04835 0.60224,0.09551 0.90162,0.147864 -0.29931,-0.05235 -0.60085,-0.09954 -0.90162,-0.147864 z m 3.28603,0.613754 c 0.27411,0.0584 0.54881,0.115399 0.82151,0.177199 -0.27265,-0.06178 -0.54751,-0.118796 -0.82151,-0.177199 z m 1.40494,0.315678 c 0.30909,0.07302 0.6191,0.144467 0.92644,0.221795 -0.30747,-0.07737 -0.61723,-0.148757 -0.92644,-0.221795 z m 1.81274,0.456502 c 0.23137,0.06169 0.46394,0.120136 0.69424,0.184237 -0.23023,-0.0641 -0.46292,-0.122594 -0.69424,-0.184237 z m 1.51339,0.422469 c 0.23618,0.06911 0.47334,0.136044 0.7084,0.207719 -0.23511,-0.0717 -0.47215,-0.138591 -0.7084,-0.207719 z m 1.66187,0.510481 c 0.18247,0.05872 0.3663,0.114595 0.54808,0.174853 -0.18178,-0.06028 -0.36559,-0.116136 -0.54808,-0.174853 z m 1.59002,0.533955 c 0.1535,0.05378 0.308,0.104742 0.46087,0.159593 -0.15283,-0.05487 -0.30748,-0.105815 -0.46087,-0.159593 z m 1.3036,0.47293 c 0.22717,0.08515 0.45532,0.168262 0.68126,0.255829 -0.22603,-0.08756 -0.45411,-0.170697 -0.68126,-0.255829 z m 1.39901,0.543342 c 0.24797,0.09954 0.49731,0.196794 0.7437,0.299248 -0.24651,-0.102508 -0.49562,-0.199653 -0.7437,-0.299248 z m 1.52869,0.636049 c 0.21737,0.09375 0.43577,0.185623 0.65181,0.281649 -0.21598,-0.09603 -0.43449,-0.187901 -0.65181,-0.281649 z m 1.56879,0.700597 c 0.16536,0.07663 0.33154,0.152019 0.49621,0.230008 -0.16466,-0.07795 -0.33087,-0.153404 -0.49621,-0.230008 z m 1.49097,0.714675 c 0.13343,0.066 0.26788,0.130257 0.40076,0.197151 -0.13298,-0.06692 -0.26727,-0.131129 -0.40076,-0.197151 z m 1.30125,0.661867 c 0.17722,0.09272 0.35533,0.183835 0.53154,0.278126 -0.17608,-0.09429 -0.35441,-0.185422 -0.53154,-0.278126 z m 1.27766,0.687685 c 0.20757,0.114685 0.41609,0.228147 0.6223,0.345019 -0.20618,-0.116919 -0.41465,-0.230305 -0.6223,-0.345019 z m 1.52635,0.869583 c 0.1341,0.07894 0.2695,0.156018 0.40304,0.235877 -0.13343,-0.07985 -0.26895,-0.156956 -0.40304,-0.235877 z m 1.42375,0.861369 c 0.0981,0.06115 0.19706,0.12141 0.29468,0.183053 -0.0978,-0.06173 -0.19661,-0.121856 -0.29468,-0.183053 z m 1.30832,0.839067 c 0.10036,0.06602 0.20162,0.13057 0.30173,0.197174 -0.0999,-0.06656 -0.2014,-0.131151 -0.30173,-0.197174 z m 1.15389,0.77805 c 0.15532,0.106998 0.31247,0.212031 0.46676,0.32037 -0.15441,-0.108361 -0.31144,-0.213305 -0.46676,-0.32037 z m 1.32362,0.935298 c 0.12454,0.09044 0.24984,0.179769 0.37362,0.271085 -0.12384,-0.09134 -0.24918,-0.180639 -0.37362,-0.271085 z m 1.25878,0.939991 c 0.11907,0.09098 0.23885,0.180461 0.35713,0.272258 -0.11837,-0.09178 -0.23818,-0.181288 -0.35713,-0.272258 z m 1.24699,0.977549 c 0.10378,0.0834 0.20801,0.165938 0.31115,0.24996 -0.10309,-0.08405 -0.20756,-0.166542 -0.31115,-0.24996 z m 1.28357,1.059691 c 0.0623,0.05273 0.12546,0.104295 0.18748,0.15727 -0.062,-0.05295 -0.12521,-0.104519 -0.18748,-0.15727 z m 1.11733,0.970504 c 0.0874,0.07762 0.17586,0.154276 0.26286,0.232359 -0.0871,-0.07813 -0.17539,-0.154678 -0.26286,-0.232359 z m 1.08907,0.989281 c 0.10856,0.100899 0.21759,0.201128 0.32533,0.302771 -0.10765,-0.101592 -0.2169,-0.20191 -0.32533,-0.302771 z m 1.13506,1.081991 c 0.0981,0.09587 0.19707,0.191007 0.29466,0.287513 -0.0976,-0.0965 -0.19661,-0.191654 -0.29466,-0.287513 z m 1.15389,1.154748 c 0.067,0.06895 0.13479,0.137295 0.20162,0.206535 -0.0668,-0.06924 -0.13457,-0.137586 -0.20162,-0.206535 z m 1.10318,1.16179 c 0.0506,0.05454 0.10173,0.108384 0.15213,0.163123 -0.0504,-0.05474 -0.1015,-0.108562 -0.15213,-0.163123 z m 2.00491,2.269596 c 0.0673,0.07996 0.13571,0.159102 0.20276,0.239399 -0.067,-0.08032 -0.13527,-0.159415 -0.20276,-0.239399 z m 4.68155,6.29948 c 0.031,0.04766 0.062,0.09542 0.0931,0.143149 -0.031,-0.04777 -0.062,-0.09549 -0.0931,-0.143149 z m 1.62652,2.632214 c 0.0335,0.05724 0.068,0.113947 0.10125,0.171345 -0.0333,-0.0574 -0.0677,-0.114059 -0.10125,-0.171345 z m 0.77673,1.362464 c 0.029,0.05244 0.0584,0.10472 0.0871,0.15727 -0.0287,-0.05255 -0.0581,-0.104809 -0.0871,-0.15727 z m 5.89795,14.6455905 c 0.0114,0.041892 0.023,0.083606 0.0342,0.1255653 -0.0114,-0.041959 -0.023,-0.083651 -0.0342,-0.1255653 z m 1.35303,6.3076885 c 0.009,0.051589 0.0159,0.10328979 0.0249,0.15490117 -0.009,-0.0516337 -0.0159,-0.10331213 -0.0249,-0.15490117 z m 0.244,1.6159479 c 0.007,0.05045 0.0136,0.1008992 0.0206,0.1513711 -0.007,-0.050517 -0.0136,-0.1009215 -0.0206,-0.1513711 z m 0.37367,3.3011244 c 0.002,0.034787 0.004,0.06962 0.009,0.1044293 -0.002,-0.034787 -0.004,-0.069664 -0.009,-0.1044293 z"
       id="path4780" />
  </g>
</svg>
